<svg width="32" height="32" viewBox="0 0 32 32" fill="none" xmlns="http://www.w3.org/2000/svg">
<mask id="mask0_100_174" style="mask-type:luminance" maskUnits="userSpaceOnUse" x="1" y="1" width="30" height="30">
<path d="M16.0001 29.3333C17.7514 29.3356 19.4859 28.9918 21.1038 28.3216C22.7218 27.6513 24.1914 26.668 25.4281 25.428C26.6681 24.1913 27.6514 22.7217 28.3216 21.1037C28.9918 19.4858 29.3357 17.7513 29.3334 16C29.3357 14.2487 28.9918 12.5143 28.3216 10.8963C27.6514 9.27833 26.668 7.80875 25.4281 6.57201C24.1914 5.33203 22.7218 4.34868 21.1038 3.67847C19.4859 3.00826 17.7514 2.66441 16.0001 2.66668C14.2488 2.66445 12.5143 3.00831 10.8964 3.67852C9.27841 4.34873 7.80883 5.33206 6.57209 6.57201C5.33214 7.80875 4.34881 9.27833 3.6786 10.8963C3.00839 12.5143 2.66453 14.2487 2.66676 16C2.66449 17.7513 3.00834 19.4858 3.67855 21.1037C4.34876 22.7217 5.33211 24.1913 6.57209 25.428C7.80883 26.668 9.27841 27.6513 10.8964 28.3215C12.5143 28.9917 14.2488 29.3356 16.0001 29.3333Z" fill="white" stroke="white" stroke-width="2.66667" stroke-linejoin="round"/>
<path d="M10.6667 16.0002L14.6667 20.0002L22.6667 12.0002" stroke="black" stroke-width="2.66667" stroke-linecap="round" stroke-linejoin="round"/>
</mask>
<g mask="url(#mask0_100_174)">
<path d="M0 0.000163078H32V32.0002H0V0.000163078Z" fill="white"/>
</g>
</svg>
