<svg width="206" height="30" viewBox="0 0 206 30" fill="none" xmlns="http://www.w3.org/2000/svg">
<g clip-path="url(#clip0_199_527)">
<path d="M1.35 7.31C1.35 3.1 4.84 0 10.74 0C16.25 0 20.53 2.74 20.53 6.48C20.53 8.53 19.23 9.76 17.07 9.76C11.25 9.75 13.34 0.86 8.95 0.86C7.22 0.86 6.54 2.26 6.54 3.85C6.54 11.05 20.9 11.23 20.9 19.33C20.9 23.69 16.69 26.89 10.75 26.89C5.24 26.89 1 24.19 1 20.45C1 18.4 2.26 17.17 4.42 17.17C10.25 17.17 8.16 25.95 12.63 25.95C14.39 25.95 15.76 24.55 15.76 22.39C15.75 15.26 1.35 15.8 1.35 7.31Z" fill="white"/>
<path d="M21.8301 26.38C22.8001 25.8 23.4501 24.65 23.4501 23.54V3.38002C23.4501 2.26002 22.8001 1.08002 21.8301 0.540024L21.5801 0.400024H41.0201C41.0201 4.61002 40.0801 6.70002 37.9601 6.70002C34.8601 6.70002 33.8601 2.13002 29.4301 0.900024V11.84H36.7401L37.9601 15.58C35.5801 14.36 32.8801 13.56 29.4301 13.06V25.98C33.8601 24.76 35.0501 20.22 38.4701 20.22C40.8101 20.22 41.7501 22.31 41.7501 26.52H21.5901L21.8401 26.38H21.8301Z" fill="white"/>
<path d="M71.4701 26.53H61.7901L62.0401 26.39C63.0101 25.81 63.6201 24.66 63.6201 23.55V2.30002L54.1501 26.53L44.9801 2.38002V18.69C44.9801 22 47.7901 25.17 51.8901 26.54H42.3501C43.3601 25.96 44.2201 22.98 44.2201 20.56V3.38002C44.2201 2.26002 43.5701 1.08002 42.6001 0.540024L42.3501 0.400024H50.5601L57.0001 17.32L63.5901 0.400024H71.4701L71.2201 0.540024C70.2501 1.08002 69.6001 2.27002 69.6001 3.38002V23.54C69.6001 24.66 70.2501 25.81 71.2201 26.38L71.4701 26.52V26.53Z" fill="white"/>
<path d="M81.8802 26.53H72.1602L72.4102 26.39C73.3802 25.78 74.0302 24.66 74.0302 23.55V3.38002C74.0302 2.26002 73.3802 1.11002 72.4102 0.540024L72.1602 0.400024H81.8802L81.6302 0.540024C80.6602 1.12002 80.0102 2.27002 80.0102 3.38002V23.54C80.0102 24.66 80.6602 25.77 81.6302 26.38L81.8802 26.52V26.53Z" fill="white"/>
<path d="M93.1101 26.89C86.8801 26.89 82.6001 21.63 82.6001 13.68C82.6001 5.73 87.2401 0 94.2301 0C99.1601 0 103.41 2.74 103.41 6.48C103.41 8.53 102.15 9.76 99.9501 9.76C94.1501 9.76 96.2401 0.94 92.4301 0.94C89.9501 0.94 88.5801 4.65 88.5801 9.61C88.5801 16.85 91.5301 22.03 96.3601 22.03C99.0601 22.03 101.51 20.41 103.78 17.21C102.34 22.93 98.4501 26.89 93.1301 26.89H93.1101Z" fill="white"/>
<path d="M117.41 0C125.04 0 130.12 5.4 130.12 13.5C130.12 21.6 124.97 26.89 117.49 26.89C110.01 26.89 104.71 21.67 104.71 13.46C104.71 5.25 109.82 0 117.41 0ZM117.48 26.17C121.44 26.17 123.74 21.24 123.74 13.5C123.74 5.76 121.47 0.76 117.44 0.76C113.41 0.76 111.03 5.76 111.03 13.43C111.03 21.1 113.48 26.17 117.47 26.17H117.48Z" fill="white"/>
<path d="M140.24 0.540024C139.27 1.08002 138.62 2.27002 138.62 3.38002V25.98C143.37 24.79 144.81 20.22 147.91 20.22C150 20.22 150.93 22.31 150.93 26.52H130.77L131.02 26.38C131.99 25.8 132.64 24.65 132.64 23.54V3.38002C132.64 2.26002 131.99 1.08002 131.02 0.540024L130.77 0.400024H140.49L140.24 0.540024Z" fill="white"/>
<path d="M162.81 0C170.44 0 175.52 5.4 175.52 13.5C175.52 21.6 170.37 26.89 162.89 26.89C155.41 26.89 150.11 21.67 150.11 13.46C150.11 5.25 155.22 0 162.82 0H162.81ZM162.88 26.17C166.84 26.17 169.14 21.24 169.14 13.5C169.14 5.76 166.87 0.76 162.84 0.76C158.81 0.76 156.43 5.76 156.43 13.43C156.43 21.1 158.88 26.17 162.87 26.17H162.88Z" fill="white"/>
<path d="M185.74 26.53H176.2C177.21 25.95 178.07 22.97 178.07 20.55V3.38002C178.07 2.26002 177.42 1.08002 176.45 0.540024L176.2 0.400024H185.16L195.92 16.17V8.25002C195.92 4.90002 193.08 1.77002 189.01 0.400024H198.51C197.5 0.940024 196.68 3.93002 196.68 6.38002V26.54H195.92L178.83 1.48002V18.69C178.83 22 181.64 25.17 185.74 26.54V26.53Z" fill="white"/>
<path d="M203.09 7.48999C205 7.48999 206.26 8.74999 206.26 10.66C206.26 12.57 205 13.83 203.09 13.83C201.18 13.83 199.92 12.57 199.92 10.66C199.92 8.74999 201.18 7.48999 203.09 7.48999ZM203.09 20.81C204.93 20.81 206.11 22.03 206.11 24.09C206.11 26.72 204.09 29.17 201.29 29.71C202.73 28.88 203.56 27.84 203.85 26.83C203.63 26.87 203.35 26.9 203.06 26.9C201.26 26.9 200.04 25.71 200.04 23.88C200.04 22.05 201.26 20.82 203.1 20.82L203.09 20.81Z" fill="white"/>
</g>
<defs>
<clipPath id="clip0_199_527">
<rect width="206" height="30" fill="white"/>
</clipPath>
</defs>
</svg>
